# xmcd
#
# Track frame offsets: 
#        150
#        9187
#        23505
#        29042
#        37355
#        43762
#        54237
#        62867
#        84187
#        102199
#        106470
#        114822
#        116992
#        133677
#        153152
#        173990
#        185330
#        196632
#        206140
#        224202
#        234295
#        250530
#        254535
#        272922
#        295512
#        300527
#
# Disc length: 4090 seconds
#
# Revision: 6
# Processed by: cddbd v1.5.2PL0 Copyright (c) Steve Scherf et al.
# Submitted via: ExactAudioCopyFreeDBPlugin 1.0
#
DISCID=6a0ff81a
DTITLE=Lotte Lenya - Lenya CD 6 - Die Dreigroschenoper (1958)
DYEAR=1982
DGENRE=Zeitgenössisch Oper
TTITLE0=Ouvertüre
TTITLE1=Die Moritat von Mackie Messer
TTITLE2=Der Morgenchoral des Peachum
TTITLE3=Anstatt-dass-Song
TTITLE4=Hochzeitslied für ärmere Leute
TTITLE5=Kanonensong
TTITLE6=Liebeslied
TTITLE7=Der Song vom Nein und Ja (Barbara-Song)
TTITLE8=Die Unsicherheit menschlicher Verhältnisse (Erstes Dreigrosche
TTITLE8=n-Finale)
TTITLE9=Der Pferdestall
TTITLE10=Abschiedslied der Polly
TTITLE11=Zwischenlied
TTITLE12=Die Ballade von der sexuellen Hörigkeit
TTITLE13=Die Seeräuberjenny oder Träume eines Küchenmädchens
TTITLE14=Zuhälter-Ballade
TTITLE15=Die Ballade vom angenehmen Leben
TTITLE16=Eifersuchtsduett
TTITLE17=Kampf um das Eigentum - Arie der Lucy
TTITLE18=Ballade über die Frage: "Wovon lebt der Mensch?" (Zweites Dre
TTITLE18=groschen-Finale)
TTITLE19=Lied von der Unzulänglichkeit menschlichen Strebens
TTITLE20=Salomon-Song
TTITLE21=Ruf aus der Gruft
TTITLE22=Ballade in der Macheath jedermann Abbitte leistet
TTITLE23=Der reitende Bote
TTITLE24=Drittes Dreigroschen-Finale
TTITLE25=Schluss-Strophen der Moritat
EXTD=
EXTT0=
EXTT1=
EXTT2=
EXTT3=
EXTT4=
EXTT5=
EXTT6=
EXTT7=
EXTT8=
EXTT9=
EXTT10=
EXTT11=
EXTT12=
EXTT13=
EXTT14=
EXTT15=
EXTT16=
EXTT17=
EXTT18=
EXTT19=
EXTT20=
EXTT21=
EXTT22=
EXTT23=
EXTT24=
EXTT25=
PLAYORDER=
